<svg width="48" height="48" viewBox="0 0 48 48" fill="none" xmlns="http://www.w3.org/2000/svg">
<circle cx="24" cy="24" r="24" fill="#FF947A"/>
<path d="M27.418 34.7002H21.418C15.988 34.7002 13.668 32.3802 13.668 26.9502V20.9502C13.668 15.5202 15.988 13.2002 21.418 13.2002H27.418C32.848 13.2002 35.168 15.5202 35.168 20.9502V26.9502C35.168 32.3802 32.848 34.7002 27.418 34.7002ZM21.418 14.7002C16.808 14.7002 15.168 16.3402 15.168 20.9502V26.9502C15.168 31.5602 16.808 33.2002 21.418 33.2002H27.418C32.028 33.2002 33.668 31.5602 33.668 26.9502V20.9502C33.668 16.3402 32.028 14.7002 27.418 14.7002H21.418Z" fill="white"/>
<path d="M19.7462 27.1897C19.5862 27.1897 19.4262 27.1397 19.2862 27.0297C19.2081 26.97 19.1425 26.8954 19.0932 26.8103C19.0438 26.7252 19.0118 26.6312 18.9988 26.5337C18.9858 26.4362 18.9921 26.3371 19.0174 26.242C19.0427 26.147 19.0865 26.0579 19.1462 25.9797L21.5262 22.8897C21.8162 22.5197 22.2262 22.2797 22.6962 22.2197C23.1562 22.1597 23.6262 22.2897 23.9962 22.5797L25.8262 24.0197C25.8962 24.0797 25.9662 24.0797 26.0162 24.0697C26.0562 24.0697 26.1262 24.0497 26.1862 23.9697L28.4962 20.9897C28.556 20.9113 28.6308 20.8457 28.7162 20.7966C28.8017 20.7475 28.8961 20.716 28.9939 20.7038C29.0917 20.6917 29.1909 20.6993 29.2858 20.7261C29.3806 20.7528 29.4692 20.7983 29.5462 20.8597C29.8762 21.1097 29.9362 21.5797 29.6762 21.9097L27.3662 24.8897C27.0762 25.2597 26.6662 25.4997 26.1962 25.5497C25.7262 25.6097 25.2662 25.4797 24.8962 25.1897L23.0662 23.7497C23.0406 23.7272 23.0101 23.711 22.9771 23.7023C22.9442 23.6937 22.9096 23.6928 22.8762 23.6997C22.8362 23.6997 22.7662 23.7197 22.7062 23.7997L20.3262 26.8897C20.1962 27.0897 19.9762 27.1897 19.7462 27.1897Z" fill="white"/>
</svg>
