<svg width="25" height="24" viewBox="0 0 25 24" fill="none" xmlns="http://www.w3.org/2000/svg">
<g id="chart-3 1" opacity="0.8">
<g id="Group">
<path id="Vector" d="M12.4766 22.8447C6.54656 22.8447 1.72656 18.0247 1.72656 12.0947C1.72656 9.73473 2.47656 7.49473 3.89656 5.61473C4.14656 5.28473 4.61656 5.22473 4.94656 5.47473C5.27656 5.72473 5.34656 6.19473 5.09656 6.52473C3.87852 8.12569 3.22137 10.0831 3.22656 12.0947C3.22656 17.1947 7.37656 21.3447 12.4766 21.3447C17.5766 21.3447 21.7266 17.1947 21.7266 12.0947C21.7266 6.99473 17.5766 2.84473 12.4766 2.84473C12.0666 2.84473 11.7266 2.50473 11.7266 2.09473C11.7266 1.68473 12.0666 1.34473 12.4766 1.34473C18.4066 1.34473 23.2266 6.16473 23.2266 12.0947C23.2266 18.0247 18.4066 22.8447 12.4766 22.8447Z" fill="#6F7181"/>
<path id="Vector_2" d="M12.4766 19.8447C8.20656 19.8447 4.72656 16.3647 4.72656 12.0947C4.72656 11.6847 5.06656 11.3447 5.47656 11.3447C5.88656 11.3447 6.22656 11.6847 6.22656 12.0947C6.22656 15.5447 9.02656 18.3447 12.4766 18.3447C15.9266 18.3447 18.7266 15.5447 18.7266 12.0947C18.7266 8.64473 15.9266 5.84473 12.4766 5.84473C12.0666 5.84473 11.7266 5.50473 11.7266 5.09473C11.7266 4.68473 12.0666 4.34473 12.4766 4.34473C16.7466 4.34473 20.2266 7.82473 20.2266 12.0947C20.2266 16.3647 16.7466 19.8447 12.4766 19.8447Z" fill="#6F7181"/>
<path id="Vector_3" d="M12.4766 16.8447C12.0666 16.8447 11.7266 16.5047 11.7266 16.0947C11.7266 15.6847 12.0666 15.3447 12.4766 15.3447C14.2666 15.3447 15.7266 13.8847 15.7266 12.0947C15.7266 10.3047 14.2666 8.84473 12.4766 8.84473C12.0666 8.84473 11.7266 8.50473 11.7266 8.09473C11.7266 7.68473 12.0666 7.34473 12.4766 7.34473C15.0966 7.34473 17.2266 9.47473 17.2266 12.0947C17.2266 14.7147 15.0966 16.8447 12.4766 16.8447Z" fill="#6F7181"/>
</g>
</g>
</svg>
