<svg width="48" height="48" viewBox="0 0 48 48" fill="none" xmlns="http://www.w3.org/2000/svg">
<circle cx="24" cy="24" r="24" fill="#BF83FF"/>
<path fill-rule="evenodd" clip-rule="evenodd" d="M23.9987 35.6668C17.5552 35.6668 12.332 30.4437 12.332 24.0002C12.332 17.5567 17.5552 12.3335 23.9987 12.3335C30.4422 12.3335 35.6654 17.5567 35.6654 24.0002C35.6654 30.4437 30.4422 35.6668 23.9987 35.6668ZM23.9987 34.2668C26.7216 34.2668 29.333 33.1852 31.2583 31.2598C33.1837 29.3344 34.2654 26.7231 34.2654 24.0002C34.2654 21.2773 33.1837 18.6659 31.2583 16.7405C29.333 14.8152 26.7216 13.7335 23.9987 13.7335C21.2758 13.7335 18.6644 14.8152 16.7391 16.7405C14.8137 18.6659 13.732 21.2773 13.732 24.0002C13.732 26.7231 14.8137 29.3344 16.7391 31.2598C18.6644 33.1852 21.2758 34.2668 23.9987 34.2668ZM22.6314 26.9845L29.4085 20.2085L30.3979 21.199L23.4562 28.1407C23.2374 28.3594 22.9407 28.4822 22.6314 28.4822C22.322 28.4822 22.0253 28.3594 21.8065 28.1407L18.1654 24.4972L19.1559 23.5067L22.6325 26.9833L22.6314 26.9845Z" fill="#F9F9F9"/>
</svg>
