<svg width="24" height="24" viewBox="0 0 24 24" fill="none" xmlns="http://www.w3.org/2000/svg">
<g id="activity 1" opacity="0.8">
<g id="Group">
<path id="Vector" d="M15.418 22.7002H9.41797C3.98797 22.7002 1.66797 20.3802 1.66797 14.9502V8.9502C1.66797 3.5202 3.98797 1.2002 9.41797 1.2002H15.418C20.848 1.2002 23.168 3.5202 23.168 8.9502V14.9502C23.168 20.3802 20.848 22.7002 15.418 22.7002ZM9.41797 2.7002C4.80797 2.7002 3.16797 4.3402 3.16797 8.9502V14.9502C3.16797 19.5602 4.80797 21.2002 9.41797 21.2002H15.418C20.028 21.2002 21.668 19.5602 21.668 14.9502V8.9502C21.668 4.3402 20.028 2.7002 15.418 2.7002H9.41797Z" fill="#6F7181"/>
</g>
<path id="Vector_2" d="M16 10H8C7.45333 10 7 9.54667 7 9C7 8.45333 7.45333 8 8 8H16C16.5467 8 17 8.45333 17 9C17 9.54667 16.5467 10 16 10Z" fill="#6F7181"/>
<path id="Vector_3" d="M12.4 13H7.6C7.272 13 7 12.5467 7 12C7 11.4533 7.272 11 7.6 11H12.4C12.728 11 13 11.4533 13 12C13 12.5467 12.728 13 12.4 13Z" fill="#6F7181"/>
<path id="Vector_4" d="M10.37 16.5H7.75C7.34 16.5 7 16.16 7 15.75C7 15.34 7.34 15 7.75 15H10.37C10.5689 15 10.7597 15.079 10.9003 15.2197C11.041 15.3603 11.12 15.5511 11.12 15.75C11.12 15.9489 11.041 16.1397 10.9003 16.2803C10.7597 16.421 10.5689 16.5 10.37 16.5Z" fill="#6F7181"/>
</g>
</svg>
