<svg width="24" height="24" viewBox="0 0 24 24" fill="none" xmlns="http://www.w3.org/2000/svg">
<g id="hugeicons:user-id-verification">
<path id="Vector" d="M9.134 2.5C6.468 2.56 4.911 2.815 3.847 3.875C2.915 4.803 2.604 6.108 2.5 8.2M14.866 2.5C17.532 2.56 19.089 2.815 20.153 3.875C21.085 4.803 21.396 6.108 21.5 8.2M14.866 21.5C17.532 21.44 19.089 21.185 20.153 20.125C21.085 19.197 21.396 17.892 21.5 15.8M9.134 21.5C6.468 21.44 4.911 21.185 3.847 20.125C2.915 19.197 2.604 17.892 2.5 15.8M7.5 17C9.832 14.558 14.143 14.443 16.5 17M14.495 9.5C14.495 10.88 13.375 12 11.992 12C11.6634 12.0005 11.3378 11.9362 11.0341 11.8108C10.7303 11.6854 10.4542 11.5014 10.2216 11.2692C9.98908 11.037 9.80457 10.7612 9.67868 10.4576C9.5528 10.1541 9.488 9.82864 9.488 9.5C9.488 8.12 10.608 7 11.992 7C12.3206 6.99961 12.646 7.06398 12.9496 7.18944C13.2533 7.3149 13.5292 7.49899 13.7617 7.73117C13.9942 7.96336 14.1786 8.23909 14.3044 8.5426C14.4302 8.84611 14.495 9.17144 14.495 9.5Z" stroke="white" stroke-width="1.5" stroke-linecap="round" stroke-linejoin="round"/>
</g>
</svg>
