<svg width="48" height="48" viewBox="0 0 48 48" fill="none" xmlns="http://www.w3.org/2000/svg">
<circle cx="24" cy="24" r="24" fill="#3CD856"/>
<path fill-rule="evenodd" clip-rule="evenodd" d="M24 13.25C22.172 13.25 20.661 13.411 19.498 13.607L19.364 13.63C18.354 13.799 17.514 13.94 16.857 14.748C16.437 15.267 16.3 15.828 16.269 16.453L15.777 16.617C15.314 16.771 14.907 16.907 14.586 17.057C14.238 17.219 13.919 17.427 13.675 17.766C13.431 18.105 13.334 18.473 13.29 18.854C13.25 19.207 13.25 19.634 13.25 20.123V20.268C13.25 20.67 13.25 21.025 13.28 21.322C13.312 21.643 13.383 21.956 13.56 22.258C13.739 22.561 13.977 22.775 14.243 22.959C14.488 23.129 14.798 23.302 15.15 23.497L17.79 24.964C18.33 26.025 19.071 26.971 20.09 27.654C20.977 28.25 22.042 28.624 23.303 28.723C23.2691 28.8115 23.2511 28.9053 23.25 29V30.75H21.82C21.4154 30.75 21.0233 30.8902 20.7105 31.1467C20.3976 31.4033 20.1833 31.7603 20.104 32.157L19.885 33.25H18C17.8011 33.25 17.6103 33.329 17.4697 33.4697C17.329 33.6103 17.25 33.8011 17.25 34C17.25 34.1989 17.329 34.3897 17.4697 34.5303C17.6103 34.671 17.8011 34.75 18 34.75H30C30.1989 34.75 30.3897 34.671 30.5303 34.5303C30.671 34.3897 30.75 34.1989 30.75 34C30.75 33.8011 30.671 33.6103 30.5303 33.4697C30.3897 33.329 30.1989 33.25 30 33.25H28.115L27.896 32.157C27.8167 31.7603 27.6024 31.4033 27.2895 31.1467C26.9767 30.8902 26.5846 30.75 26.18 30.75H24.75V29C24.7489 28.9053 24.7309 28.8115 24.697 28.723C25.958 28.623 27.023 28.25 27.91 27.655C28.93 26.971 29.67 26.025 30.21 24.964L32.85 23.497C33.202 23.302 33.512 23.129 33.757 22.959C34.022 22.775 34.261 22.561 34.439 22.259C34.617 21.956 34.689 21.643 34.72 21.322C34.75 21.025 34.75 20.67 34.75 20.268V20.123C34.75 19.635 34.75 19.207 34.71 18.854C34.666 18.473 34.57 18.104 34.325 17.766C34.081 17.427 33.762 17.219 33.415 17.056C33.092 16.906 32.686 16.771 32.223 16.617L31.731 16.453C31.701 15.827 31.564 15.267 31.143 14.748C30.487 13.939 29.647 13.798 28.637 13.63L28.502 13.607C27.0139 13.3625 25.508 13.2431 24 13.25ZM26.585 33.25L26.425 32.451C26.4137 32.3944 26.3831 32.3434 26.3384 32.3067C26.2938 32.2701 26.2378 32.25 26.18 32.25H21.82C21.7622 32.25 21.7062 32.2701 21.6616 32.3067C21.6169 32.3434 21.5863 32.3944 21.575 32.451L21.415 33.25H26.585ZM16.288 18.028L16.302 18.023C16.374 19.543 16.545 21.223 16.973 22.793L15.907 22.202C15.518 21.985 15.274 21.849 15.098 21.727C14.936 21.614 14.883 21.547 14.854 21.497C14.824 21.447 14.792 21.369 14.772 21.173C14.7513 20.8608 14.744 20.5478 14.75 20.235V20.162C14.75 19.623 14.751 19.282 14.78 19.024C14.808 18.786 14.852 18.697 14.892 18.643C14.931 18.588 15.001 18.518 15.218 18.417C15.454 18.307 15.778 18.199 16.288 18.028ZM31.698 18.022C31.627 19.542 31.455 21.222 31.028 22.792L32.093 22.201C32.482 21.984 32.726 21.848 32.902 21.726C33.064 21.613 33.117 21.546 33.146 21.496C33.176 21.446 33.208 21.368 33.228 21.172C33.249 20.958 33.25 20.679 33.25 20.234V20.161C33.25 19.622 33.249 19.281 33.22 19.023C33.192 18.785 33.148 18.696 33.108 18.642C33.069 18.587 32.999 18.517 32.782 18.416C32.546 18.306 32.222 18.197 31.712 18.026L31.698 18.022ZM19.748 15.086C21.1535 14.8559 22.5758 14.7435 24 14.75C25.74 14.75 27.167 14.903 28.252 15.086C29.459 15.29 29.712 15.366 29.979 15.694C30.241 16.016 30.266 16.322 30.212 17.677C30.122 19.935 29.824 22.373 28.902 24.227C28.446 25.141 27.85 25.889 27.075 26.409C26.304 26.926 25.309 27.25 24 27.25C22.691 27.25 21.697 26.926 20.926 26.409C20.15 25.889 19.554 25.141 19.099 24.226C18.176 22.373 17.879 19.936 17.789 17.676C17.735 16.322 17.759 16.016 18.022 15.694C18.288 15.366 18.541 15.29 19.748 15.086Z" fill="white"/>
</svg>
