<svg width="61" height="60" viewBox="0 0 61 60" fill="none" xmlns="http://www.w3.org/2000/svg">
<circle cx="30.5" cy="30" r="25" fill="#FF0101"/>
<g clip-path="url(#clip0_394_482)">
<path fill-rule="evenodd" clip-rule="evenodd" d="M27.9549 18.2737C29.5394 17.9297 31.1821 17.9107 32.7748 18.218C34.3675 18.5254 35.8741 19.152 37.1952 20.0568C38.5163 20.9615 39.622 22.1237 40.4394 23.4669C41.2568 24.81 41.7674 26.3036 41.9375 27.8492C41.9674 28.1213 41.8831 28.3935 41.7032 28.6061C41.5232 28.8187 41.2624 28.9543 40.9779 28.9829C40.6935 29.0115 40.4089 28.9309 40.1866 28.7588C39.9643 28.5867 39.8226 28.3371 39.7927 28.0651C39.6079 26.3857 38.9295 24.7907 37.836 23.465C36.7426 22.1392 35.2788 21.1369 33.6143 20.5741C31.9498 20.0113 30.1527 19.9111 28.4311 20.285C26.7095 20.659 25.1339 21.4918 23.8868 22.687C22.6397 23.8823 21.7721 25.391 21.3845 27.0385C20.9969 28.686 21.1052 30.4048 21.6969 31.9958C22.2885 33.5868 23.3393 34.9849 24.7274 36.0283C26.1156 37.0716 27.7844 37.7174 29.5405 37.8908C29.6823 37.9035 29.8202 37.9429 29.946 38.0068C30.0718 38.0707 30.1832 38.1579 30.2736 38.2632C30.364 38.3685 30.4317 38.4899 30.4728 38.6204C30.5138 38.751 30.5274 38.8879 30.5128 39.0235C30.4982 39.1591 30.4556 39.2905 30.3875 39.4102C30.3195 39.53 30.2273 39.6356 30.1163 39.7211C30.0053 39.8065 29.8777 39.87 29.7408 39.908C29.604 39.946 29.4607 39.9577 29.3191 39.9423C26.6064 39.6754 24.0812 38.495 22.1941 36.6119C20.3071 34.7289 19.181 32.2657 19.0169 29.662C18.8529 27.0583 19.6614 24.4835 21.2983 22.3972C22.9352 20.311 25.294 18.8491 27.9535 18.2723L27.9549 18.2737ZM30.5007 22.1251C30.7867 22.1251 31.0609 22.2337 31.2631 22.4271C31.4653 22.6205 31.5788 22.8828 31.5788 23.1563V30.3751H25.8288C25.5429 30.3751 25.2687 30.2664 25.0665 30.073C24.8643 29.8796 24.7507 29.6173 24.7507 29.3438C24.7507 29.0703 24.8643 28.808 25.0665 28.6146C25.2687 28.4212 25.5429 28.3126 25.8288 28.3126H29.4226V23.1563C29.4226 22.8828 29.5362 22.6205 29.7384 22.4271C29.9406 22.2337 30.2148 22.1251 30.5007 22.1251ZM33.692 32.0526C33.8941 31.8595 34.1681 31.751 34.4538 31.751C34.7395 31.751 35.0136 31.8595 35.2157 32.0526L37.6882 34.4176L40.1607 32.0526C40.2594 31.9513 40.3784 31.87 40.5107 31.8136C40.6429 31.7573 40.7857 31.727 40.9305 31.7245C41.0752 31.7221 41.219 31.7475 41.3533 31.7994C41.4875 31.8513 41.6095 31.9285 41.7118 32.0264C41.8142 32.1243 41.8949 32.241 41.9491 32.3694C42.0034 32.4978 42.03 32.6353 42.0274 32.7738C42.0249 32.9123 41.9932 33.0488 41.9343 33.1753C41.8754 33.3018 41.7904 33.4157 41.6845 33.5101L39.212 35.8751L41.6845 38.2401C41.7904 38.3345 41.8754 38.4483 41.9343 38.5748C41.9932 38.7013 42.0249 38.8379 42.0274 38.9764C42.03 39.1148 42.0034 39.2524 41.9491 39.3808C41.8949 39.5092 41.8142 39.6258 41.7118 39.7238C41.6095 39.8217 41.4875 39.8989 41.3533 39.9507C41.219 40.0026 41.0752 40.0281 40.9305 40.0256C40.7857 40.0232 40.6429 39.9929 40.5107 39.9365C40.3784 39.8802 40.2594 39.7989 40.1607 39.6976L37.6882 37.3326L35.2157 39.6976C35.117 39.7989 34.998 39.8802 34.8657 39.9365C34.7335 39.9929 34.5907 40.0232 34.446 40.0256C34.3012 40.0281 34.1574 40.0026 34.0232 39.9507C33.8889 39.8989 33.767 39.8217 33.6646 39.7238C33.5622 39.6258 33.4815 39.5092 33.4273 39.3808C33.3731 39.2524 33.3464 39.1148 33.349 38.9764C33.3515 38.8379 33.3832 38.7013 33.4422 38.5748C33.5011 38.4483 33.586 38.3345 33.692 38.2401L36.1645 35.8751L33.692 33.5101C33.4901 33.3167 33.3767 33.0546 33.3767 32.7813C33.3767 32.508 33.4901 32.2459 33.692 32.0526Z" fill="white"/>
</g>
<defs>
<clipPath id="clip0_394_482">
<rect width="23" height="22" fill="white" transform="translate(19 18)"/>
</clipPath>
</defs>
</svg>
