<svg width="36" height="36" viewBox="0 0 36 36" fill="none" xmlns="http://www.w3.org/2000/svg">
<g id="nimbus:list" clip-path="url(#clip0_41_813)">
<path id="Vector" d="M8.54998 6.8625H36V9.6975H8.54998V6.8625ZM8.54998 16.515H36V19.35H8.54998V16.515ZM8.54998 26.325H36V29.16H8.54998V26.325ZM2.81248 5.625C3.53678 5.6068 4.23889 5.87569 4.76574 6.37304C5.2926 6.87039 5.60146 7.55586 5.62498 8.28C5.59568 9.00017 5.28429 9.67992 4.75807 10.1725C4.23185 10.665 3.53302 10.9308 2.81248 10.9125C2.09195 10.9308 1.39312 10.665 0.866896 10.1725C0.340675 9.67992 0.0292904 9.00017 -1.64062e-05 8.28C0.0235098 7.55586 0.33237 6.87039 0.859223 6.37304C1.38608 5.87569 2.08819 5.6068 2.81248 5.625ZM2.81248 15.3C3.18016 15.266 3.55088 15.3092 3.90096 15.4266C4.25103 15.544 4.57277 15.7332 4.8456 15.982C5.11844 16.2308 5.33638 16.5337 5.4855 16.8715C5.63462 17.2093 5.71164 17.5745 5.71164 17.9437C5.71164 18.313 5.63462 18.6782 5.4855 19.016C5.33638 19.3538 5.11844 19.6567 4.8456 19.9055C4.57277 20.1543 4.25103 20.3435 3.90096 20.4609C3.55088 20.5783 3.18016 20.6215 2.81248 20.5875C2.4448 20.6215 2.07408 20.5783 1.72401 20.4609C1.37393 20.3435 1.0522 20.1543 0.779364 19.9055C0.506528 19.6567 0.288589 19.3538 0.139469 19.016C-0.00964994 18.6782 -0.0866699 18.313 -0.0866699 17.9437C-0.0866699 17.5745 -0.00964994 17.2093 0.139469 16.8715C0.288589 16.5337 0.506528 16.2308 0.779364 15.982C1.0522 15.7332 1.37393 15.544 1.72401 15.4266C2.07408 15.3092 2.4448 15.266 2.81248 15.3ZM2.81248 25.0875C3.18016 25.0535 3.55088 25.0967 3.90096 25.2141C4.25103 25.3315 4.57277 25.5207 4.8456 25.7695C5.11844 26.0183 5.33638 26.3212 5.4855 26.659C5.63462 26.9968 5.71164 27.362 5.71164 27.7312C5.71164 28.1005 5.63462 28.4657 5.4855 28.8035C5.33638 29.1413 5.11844 29.4442 4.8456 29.693C4.57277 29.9418 4.25103 30.131 3.90096 30.2484C3.55088 30.3658 3.18016 30.409 2.81248 30.375C2.4448 30.409 2.07408 30.3658 1.72401 30.2484C1.37393 30.131 1.0522 29.9418 0.779364 29.693C0.506528 29.4442 0.288589 29.1413 0.139469 28.8035C-0.00964994 28.4657 -0.0866699 28.1005 -0.0866699 27.7312C-0.0866699 27.362 -0.00964994 26.9968 0.139469 26.659C0.288589 26.3212 0.506528 26.0183 0.779364 25.7695C1.0522 25.5207 1.37393 25.3315 1.72401 25.2141C2.07408 25.0967 2.4448 25.0535 2.81248 25.0875Z" fill="black"/>
</g>
<defs>
<clipPath id="clip0_41_813">
<rect width="36" height="36" fill="white"/>
</clipPath>
</defs>
</svg>
