<svg width="26" height="25" viewBox="0 0 26 25" fill="none" xmlns="http://www.w3.org/2000/svg">
<g id="logout 1">
<g id="Group">
<path id="Vector" d="M16.5154 22.3642H16.3807C11.7786 22.3642 9.56053 20.6142 9.17702 16.6942C9.13556 16.2842 9.44651 15.9142 9.88184 15.8742C10.2964 15.8342 10.6903 16.1442 10.7318 16.5542C11.0324 19.6942 12.5664 20.8642 16.391 20.8642H16.5258C20.7443 20.8642 22.2369 19.4242 22.2369 15.3542V8.83422C22.2369 4.76422 20.7443 3.32422 16.5258 3.32422H16.391C12.5456 3.32422 11.0116 4.51422 10.7318 7.71422C10.6799 8.12422 10.3172 8.43422 9.88184 8.39422C9.77969 8.38652 9.68011 8.35944 9.58883 8.31452C9.49755 8.26961 9.41636 8.20775 9.34991 8.1325C9.28347 8.05724 9.23308 7.97007 9.20163 7.87599C9.17018 7.7819 9.1583 7.68275 9.16666 7.58422C9.51907 3.60422 11.7475 1.82422 16.3807 1.82422H16.5154C21.6046 1.82422 23.7813 3.92422 23.7813 8.83422V15.3542C23.7813 20.2642 21.6046 22.3642 16.5154 22.3642Z" fill="#FB6B63"/>
<path id="Vector_2" d="M16.2641 12.8438H4.46878C4.04381 12.8438 3.69141 12.5037 3.69141 12.0938C3.69141 11.6838 4.04381 11.3438 4.46878 11.3438H16.2641C16.6891 11.3438 17.0415 11.6838 17.0415 12.0938C17.0415 12.5037 16.6891 12.8438 16.2641 12.8438Z" fill="#FB6B63"/>
<path id="Vector_3" d="M6.78241 16.1946C6.58547 16.1946 6.38854 16.1246 6.23307 15.9746L2.7608 12.6246C2.61623 12.4834 2.53516 12.293 2.53516 12.0946C2.53516 11.8961 2.61623 11.7057 2.7608 11.5646L6.23307 8.21457C6.53365 7.92457 7.03117 7.92457 7.33175 8.21457C7.63234 8.50457 7.63234 8.98457 7.33175 9.27457L4.40883 12.0946L7.33175 14.9146C7.63234 15.2046 7.63234 15.6846 7.33175 15.9746C7.18664 16.1246 6.97934 16.1946 6.78241 16.1946Z" fill="#FB6B63"/>
</g>
</g>
</svg>
