<svg width="24" height="24" viewBox="0 0 24 24" fill="none" xmlns="http://www.w3.org/2000/svg">
<g id="setting-2 2" opacity="0.8">
<g id="Group">
<path id="Vector" d="M12.418 15.8447C10.348 15.8447 8.66797 14.1647 8.66797 12.0947C8.66797 10.0247 10.348 8.34473 12.418 8.34473C14.488 8.34473 16.168 10.0247 16.168 12.0947C16.168 14.1647 14.488 15.8447 12.418 15.8447ZM12.418 9.84473C11.178 9.84473 10.168 10.8547 10.168 12.0947C10.168 13.3347 11.178 14.3447 12.418 14.3447C13.658 14.3447 14.668 13.3347 14.668 12.0947C14.668 10.8547 13.658 9.84473 12.418 9.84473Z" fill="#6F7181"/>
<path id="Vector_2" d="M15.628 22.285C15.418 22.285 15.208 22.255 14.998 22.205C14.378 22.035 13.858 21.645 13.528 21.095L13.408 20.895C12.818 19.875 12.008 19.875 11.418 20.895L11.308 21.085C10.978 21.645 10.458 22.045 9.83797 22.205C9.20797 22.375 8.55797 22.285 8.00797 21.955L6.28797 20.965C5.98575 20.7918 5.72063 20.5608 5.50778 20.2851C5.29492 20.0094 5.13851 19.6944 5.04749 19.3582C4.95648 19.022 4.93263 18.6711 4.97733 18.3257C5.02202 17.9802 5.13438 17.647 5.30797 17.345C5.59797 16.835 5.67797 16.375 5.50797 16.085C5.33797 15.795 4.90797 15.625 4.31797 15.625C2.85797 15.625 1.66797 14.435 1.66797 12.975V11.215C1.66797 9.75501 2.85797 8.56501 4.31797 8.56501C4.90797 8.56501 5.33797 8.39501 5.50797 8.10501C5.67797 7.81501 5.60797 7.35501 5.30797 6.84501C4.95797 6.23501 4.86797 5.51501 5.04797 4.83501C5.22797 4.14501 5.66797 3.57501 6.28797 3.22501L8.01797 2.23501C9.14797 1.56501 10.638 1.95501 11.318 3.10501L11.438 3.30501C12.028 4.32501 12.838 4.32501 13.428 3.30501L13.538 3.11501C14.218 1.95501 15.708 1.56501 16.848 2.24501L18.568 3.23501C18.8702 3.40818 19.1353 3.63923 19.3482 3.91494C19.561 4.19066 19.7174 4.50563 19.8084 4.84185C19.8995 5.17806 19.9233 5.52892 19.8786 5.87436C19.8339 6.2198 19.7216 6.55304 19.548 6.85501C19.258 7.36501 19.178 7.82501 19.348 8.11501C19.518 8.40501 19.948 8.57501 20.538 8.57501C21.998 8.57501 23.188 9.76501 23.188 11.225V12.985C23.188 14.445 21.998 15.635 20.538 15.635C19.948 15.635 19.518 15.805 19.348 16.095C19.178 16.385 19.248 16.845 19.548 17.355C19.898 17.965 19.998 18.685 19.808 19.365C19.721 19.7033 19.5663 20.0205 19.3532 20.2972C19.14 20.574 18.8729 20.8046 18.568 20.975L16.838 21.965C16.458 22.175 16.048 22.285 15.628 22.285ZM12.418 18.585C13.308 18.585 14.138 19.145 14.708 20.135L14.818 20.325C14.938 20.535 15.138 20.685 15.378 20.745C15.618 20.805 15.858 20.775 16.058 20.655L17.788 19.655C18.052 19.5027 18.2453 19.2524 18.3258 18.9584C18.4063 18.6645 18.3675 18.3506 18.218 18.085C17.648 17.105 17.578 16.095 18.018 15.325C18.458 14.555 19.368 14.115 20.508 14.115C21.148 14.115 21.658 13.605 21.658 12.965V11.205C21.658 10.575 21.148 10.055 20.508 10.055C19.368 10.055 18.458 9.61501 18.018 8.84501C17.578 8.07501 17.648 7.06501 18.218 6.08501C18.368 5.82501 18.408 5.51501 18.328 5.21501C18.248 4.91501 18.058 4.67501 17.798 4.51501L16.068 3.52501C15.9636 3.46382 15.8482 3.4238 15.7283 3.40727C15.6085 3.39074 15.4866 3.398 15.3695 3.42865C15.2525 3.45931 15.1426 3.51274 15.0463 3.5859C14.9499 3.65907 14.8689 3.75051 14.808 3.85501L14.698 4.04501C14.128 5.03501 13.298 5.59501 12.408 5.59501C11.518 5.59501 10.688 5.03501 10.118 4.04501L10.008 3.84501C9.8837 3.64065 9.68458 3.49285 9.45298 3.43308C9.22139 3.37332 8.97561 3.4063 8.76797 3.52501L7.03797 4.52501C6.77395 4.67731 6.58068 4.92763 6.50017 5.2216C6.41966 5.51557 6.45839 5.82944 6.60797 6.09501C7.17797 7.07501 7.24797 8.08501 6.80797 8.85501C6.36797 9.62501 5.45797 10.065 4.31797 10.065C3.67797 10.065 3.16797 10.575 3.16797 11.215V12.975C3.16797 13.605 3.67797 14.125 4.31797 14.125C5.45797 14.125 6.36797 14.565 6.80797 15.335C7.24797 16.105 7.17797 17.115 6.60797 18.095C6.45797 18.355 6.41797 18.665 6.49797 18.965C6.57797 19.265 6.76797 19.505 7.02797 19.665L8.75797 20.655C8.96797 20.785 9.21797 20.815 9.44797 20.755C9.68797 20.695 9.88797 20.535 10.018 20.325L10.128 20.135C10.698 19.155 11.528 18.585 12.418 18.585Z" fill="#6F7181"/>
</g>
</g>
</svg>
