<svg width="24" height="24" viewBox="0 0 24 24" fill="none" xmlns="http://www.w3.org/2000/svg">
<g id="category 1">
<g id="Group">
<path id="Vector" d="M7.65797 1.9502H5.75797C3.56797 1.9502 2.41797 3.1002 2.41797 5.2802V7.1802C2.41797 9.3602 3.56797 10.5102 5.74797 10.5102H7.64797C9.82797 10.5102 10.978 9.3602 10.978 7.1802V5.2802C10.988 3.1002 9.83797 1.9502 7.65797 1.9502Z" fill="#1E1E2D"/>
<path id="Vector_2" opacity="0.6" d="M19.0894 1.9502H17.1894C15.0094 1.9502 13.8594 3.1002 13.8594 5.2802V7.1802C13.8594 9.3602 15.0094 10.5102 17.1894 10.5102H19.0894C21.2694 10.5102 22.4194 9.3602 22.4194 7.1802V5.2802C22.4194 3.1002 21.2694 1.9502 19.0894 1.9502Z" fill="#1E1E2D"/>
<path id="Vector_3" d="M19.0894 13.3799H17.1894C15.0094 13.3799 13.8594 14.5299 13.8594 16.7099V18.6099C13.8594 20.7899 15.0094 21.9399 17.1894 21.9399H19.0894C21.2694 21.9399 22.4194 20.7899 22.4194 18.6099V16.7099C22.4194 14.5299 21.2694 13.3799 19.0894 13.3799Z" fill="#1E1E2D"/>
<path id="Vector_4" opacity="0.6" d="M7.65797 13.3799H5.75797C3.56797 13.3799 2.41797 14.5299 2.41797 16.7099V18.6099C2.41797 20.7999 3.56797 21.9499 5.74797 21.9499H7.64797C9.82797 21.9499 10.978 20.7999 10.978 18.6199V16.7199C10.988 14.5299 9.83797 13.3799 7.65797 13.3799Z" fill="#1E1E2D"/>
</g>
</g>
</svg>
