<svg xmlns="http://www.w3.org/2000/svg" width="24" height="24" viewBox="0 0 24 24" fill="none">
  <g clip-path="url(#clip0_157_329)">
    <path d="M20.121 18.4288C20.121 18.7123 19.9297 18.9163 19.6545 18.9163C19.371 18.9163 19.188 18.6995 19.188 18.4288C19.188 18.158 19.371 17.9413 19.6545 17.9413C19.9297 17.9413 20.121 18.158 20.121 18.4288ZM7.17074 17.9413C6.87449 17.9413 6.70424 18.158 6.70424 18.4288C6.70424 18.6995 6.87524 18.9163 7.17074 18.9163C7.44149 18.9163 7.62449 18.7123 7.62449 18.4288C7.61999 18.158 7.44149 17.9413 7.17074 17.9413ZM12.0667 17.9293C11.8417 17.9293 11.7037 18.0748 11.6707 18.2915H12.4665C12.429 18.0538 12.2835 17.9293 12.0667 17.9293ZM16.5585 17.9413C16.275 17.9413 16.1047 18.158 16.1047 18.4288C16.1047 18.6995 16.2757 18.9163 16.5585 18.9163C16.842 18.9163 17.025 18.7123 17.025 18.4288C17.025 18.158 16.8412 17.9413 16.5585 17.9413ZM20.9707 19.0288C20.9707 19.0415 20.9835 19.0498 20.9835 19.0745C20.9835 19.0873 20.9707 19.0955 20.9707 19.1203C20.958 19.133 20.958 19.1413 20.9497 19.1533C20.937 19.166 20.9287 19.1743 20.904 19.1743C20.8912 19.187 20.883 19.187 20.8582 19.187C20.8455 19.187 20.8372 19.187 20.8125 19.1743C20.7997 19.1743 20.7915 19.1615 20.7795 19.1533C20.7667 19.1405 20.7585 19.1323 20.7585 19.1203C20.7457 19.0993 20.7457 19.0873 20.7457 19.0745C20.7457 19.0535 20.7457 19.0415 20.7585 19.0288C20.7585 19.0078 20.7712 18.9958 20.7795 18.983C20.7922 18.9703 20.8005 18.9703 20.8125 18.962C20.8335 18.9493 20.8455 18.9493 20.8582 18.9493C20.8792 18.9493 20.8912 18.9493 20.904 18.962C20.925 18.974 20.937 18.974 20.9497 18.983C20.9625 18.992 20.958 19.0078 20.9707 19.0288ZM20.8792 19.0873C20.9002 19.0873 20.9002 19.0745 20.9122 19.0745C20.925 19.0618 20.925 19.0535 20.925 19.0415C20.925 19.0295 20.925 19.0205 20.9122 19.0085C20.9002 19.0085 20.8912 18.9958 20.8665 18.9958H20.7997V19.1413H20.8327V19.0828H20.8455L20.8912 19.1413H20.9242L20.8792 19.0873ZM24 4.70826V19.3753C23.9994 19.9056 23.7885 20.414 23.4135 20.789C23.0385 21.164 22.5301 21.3749 21.9997 21.3755H1.99949C1.46917 21.3749 0.960745 21.164 0.585754 20.789C0.210764 20.414 -0.000167412 19.9056 -0.000762939 19.3753V4.70826C-0.000167412 4.17794 0.210764 3.66952 0.585754 3.29453C0.960745 2.91953 1.46917 2.7086 1.99949 2.70801H21.9997C22.5301 2.7086 23.0385 2.91953 23.4135 3.29453C23.7885 3.66952 23.9994 4.17794 24 4.70826ZM2.66699 10.5245C2.66699 13.712 5.25449 16.295 8.43749 16.295C9.57109 16.2919 10.6791 15.9575 11.625 15.3328C8.58749 12.8623 8.60849 8.19951 11.625 5.72826C10.68 5.10153 9.57141 4.76687 8.43749 4.76601C5.25449 4.76226 2.66699 7.34901 2.66699 10.5245ZM12 15.0583C14.9377 12.7663 14.925 8.30001 12 5.99601C9.07499 8.30001 9.06224 12.7708 12 15.0583ZM6.07049 18.2375C6.07049 17.8753 5.83274 17.6375 5.45774 17.6248C5.26574 17.6248 5.06174 17.6833 4.92449 17.8955C4.82474 17.7245 4.65374 17.6248 4.41599 17.6248C4.32952 17.623 4.24395 17.6426 4.16688 17.6818C4.08982 17.7211 4.02364 17.7788 3.97424 17.8498V17.6668H3.63299V19.196H3.97424C3.97424 18.4085 3.86999 17.9375 4.34924 17.9375C4.77449 17.9375 4.69124 18.3628 4.69124 19.196H5.02049C5.02049 18.4333 4.91624 17.9375 5.39549 17.9375C5.82074 17.9375 5.73674 18.3545 5.73674 19.196H6.07874V18.2375H6.07049ZM7.94174 17.6668H7.61249V17.8498C7.55429 17.777 7.47993 17.7187 7.39531 17.6797C7.31069 17.6406 7.21814 17.6218 7.12499 17.6248C6.69599 17.6248 6.36674 17.9668 6.36674 18.4288C6.36674 18.8953 6.69599 19.2328 7.12499 19.2328C7.34174 19.2328 7.49999 19.1533 7.61249 19.0078V19.1998H7.94174V17.6668ZM9.62924 18.7333C9.62924 18.1085 8.67524 18.3913 8.67524 18.0995C8.67524 17.8618 9.17099 17.9 9.44624 18.0538L9.58349 17.783C9.19199 17.5288 8.32499 17.5333 8.32499 18.125C8.32499 18.7205 9.27899 18.4708 9.27899 18.7498C9.27899 19.0123 8.71649 18.9913 8.41649 18.7828L8.27099 19.0453C8.73749 19.3618 9.62924 19.295 9.62924 18.7325V18.7333ZM11.1045 19.1203L11.013 18.8368C10.8547 18.9238 10.5045 19.0198 10.5045 18.6658V17.9743H11.0505V17.666H10.5045V17.1995H10.1625V17.666H9.84599V17.9705H10.1625V18.6665C10.1625 19.4 10.8832 19.2665 11.1045 19.1203ZM11.658 18.5623H12.804C12.804 17.8873 12.4957 17.6203 12.0787 17.6203C11.637 17.6203 11.3205 17.9495 11.3205 18.4243C11.3205 19.2785 12.2625 19.4203 12.729 19.016L12.5707 18.7663C12.246 19.0333 11.754 19.0078 11.658 18.5623ZM14.121 17.6668C13.9297 17.5835 13.638 17.5918 13.488 17.8498V17.6668H13.146V19.196H13.488V18.3335C13.488 17.8498 13.884 17.9128 14.0212 17.9833L14.121 17.6668ZM14.5627 18.4288C14.5627 17.9533 15.0465 17.7995 15.4252 18.0785L15.5835 17.8078C15.0997 17.429 14.2207 17.6368 14.2207 18.4325C14.2207 19.2575 15.1537 19.424 15.5835 19.0573L15.4252 18.7865C15.042 19.0573 14.5627 18.8953 14.5627 18.428V18.4288ZM17.3415 17.6668H16.9995V17.8498C16.6537 17.3915 15.7537 17.6503 15.7537 18.4288C15.7537 19.229 16.6867 19.4578 16.9995 19.0078V19.1998H17.3415V17.6668ZM18.7455 17.6668C18.6457 17.6165 18.2872 17.546 18.1125 17.8498V17.6668H17.7832V19.196H18.1125V18.3335C18.1125 17.8753 18.4875 17.9045 18.6457 17.9833L18.7455 17.6668ZM20.4247 17.0458H20.0955V17.8498C19.7535 17.396 18.8497 17.6375 18.8497 18.4288C18.8497 19.2373 19.7872 19.4533 20.0955 19.0078V19.1998H20.4247V17.0458ZM20.742 13.9168V14.1088H20.775V13.9168H20.8537V13.8838H20.6617V13.9168H20.742ZM21.0165 19.0745C21.0165 19.0535 21.0165 19.0288 21.0045 19.0078C20.9917 18.995 20.9835 18.9748 20.9715 18.962C20.9595 18.9493 20.9385 18.941 20.9257 18.929C20.9047 18.929 20.88 18.9163 20.859 18.9163C20.8462 18.9163 20.826 18.929 20.8005 18.929C20.7839 18.938 20.7685 18.9491 20.7547 18.962C20.7337 18.974 20.7217 18.995 20.7217 19.0078C20.709 19.0288 20.709 19.0535 20.709 19.0745C20.709 19.0873 20.709 19.1075 20.7217 19.133C20.7217 19.1458 20.7345 19.166 20.7547 19.1788C20.7678 19.1926 20.7833 19.2037 20.8005 19.2118C20.8215 19.2238 20.8462 19.2238 20.859 19.2238C20.88 19.2238 20.9047 19.2238 20.9257 19.2118C20.9385 19.199 20.9587 19.1908 20.9715 19.1788C20.9842 19.1668 20.9925 19.1458 21.0045 19.133C21.0165 19.1083 21.0165 19.0873 21.0165 19.0745ZM21.15 13.8793H21.0915L21.0247 14.0248L20.958 13.8793H20.8995V14.1043H20.9325V13.9333L20.9992 14.0788H21.045L21.1035 13.9333V14.1043H21.1492L21.15 13.8793ZM21.333 10.5245C21.333 7.34901 18.7455 4.76226 15.5625 4.76226C14.4289 4.76532 13.3209 5.09979 12.375 5.72451C15.3795 8.19576 15.4252 12.8705 12.375 15.329C13.3205 15.9545 14.4288 16.2891 15.5625 16.2913C18.7455 16.2958 21.333 13.712 21.333 10.5245Z" fill="black"/>
  </g>
  <defs>
    <clipPath id="clip0_157_329">
      <rect width="24" height="24" fill="white"/>
    </clipPath>
  </defs>
</svg>