<svg xmlns="http://www.w3.org/2000/svg" width="24" height="24" viewBox="0 0 24 24" fill="none">
<g clip-path="url(#clip0_157_327)">
<path d="M19.5877 10.9708C19.5877 10.9708 19.9042 12.521 19.9755 12.8458H18.5842L19.251 11.033C19.2427 11.0458 19.3882 10.6535 19.4715 10.412L19.5877 10.9708ZM24 4.66627V19.3333C23.9994 19.8636 23.7885 20.372 23.4135 20.747C23.0385 21.122 22.5301 21.3329 21.9997 21.3335H1.99949C1.46917 21.3329 0.960745 21.122 0.585754 20.747C0.210764 20.372 -0.000167412 19.8636 -0.000762939 19.3333V4.66627C-0.000167412 4.13595 0.210764 3.62752 0.585754 3.25253C0.960745 2.87754 1.46917 2.66661 1.99949 2.66602H21.9997C22.5301 2.66661 23.0385 2.87754 23.4135 3.25253C23.7885 3.62752 23.9994 4.13595 24 4.66627ZM6.35399 15.1333L8.98724 8.66677H7.21649L5.57924 13.0835L5.39999 12.188L4.81649 9.21277C4.72049 8.80027 4.42499 8.68327 4.05824 8.66677H1.36274L1.33349 8.79576C1.95074 8.94738 2.54285 9.18735 3.09149 9.50827L4.58324 15.1333H6.35399ZM10.2877 15.1415L11.3377 8.66677H9.66299L8.61749 15.1415H10.2877ZM16.1167 13.025C16.125 12.2878 15.675 11.7253 14.7127 11.2625C14.1255 10.9663 13.767 10.7668 13.767 10.4623C13.7752 10.187 14.0715 9.90352 14.7292 9.90352C15.1577 9.89079 15.5835 9.97487 15.975 10.1495L16.125 10.22L16.3545 8.81977C15.8755 8.63725 15.3671 8.54396 14.8545 8.54452C13.2 8.54452 12.0375 9.42802 12.0292 10.6858C12.0165 11.615 12.8625 12.1318 13.4962 12.4438C14.142 12.7603 14.3632 12.9688 14.3632 13.2478C14.355 13.6813 13.8382 13.8808 13.359 13.8808C12.6922 13.8808 12.3337 13.7765 11.7877 13.535L11.5672 13.4308L11.334 14.885C11.7255 15.0643 12.4507 15.2225 13.2007 15.2308C14.9587 15.2345 16.1047 14.3638 16.1175 13.0228L16.1167 13.025ZM21.9997 15.1415L20.6497 8.66677H19.3537C18.954 8.66677 18.6495 8.78377 18.4785 9.20452L15.9907 15.1423H17.7487C17.7487 15.1423 18.036 14.342 18.099 14.1718H20.2492C20.2995 14.4013 20.4495 15.1423 20.4495 15.1423L21.9997 15.1415Z" fill="black"/>
</g>
<defs>
<clipPath id="clip0_157_327">
<rect width="24" height="24" fill="white"/>
</clipPath>
</defs>
</svg>