<svg width="24" height="24" viewBox="0 0 24 24" fill="none" xmlns="http://www.w3.org/2000/svg">
<g id="heart-circle 1" opacity="0.8">
<g id="Group">
<path id="Vector" d="M12.418 22.7002C6.48797 22.7002 1.66797 17.8802 1.66797 11.9502C1.66797 6.0202 6.48797 1.2002 12.418 1.2002C18.348 1.2002 23.168 6.0202 23.168 11.9502C23.168 17.8802 18.348 22.7002 12.418 22.7002ZM12.418 2.7002C7.31797 2.7002 3.16797 6.8502 3.16797 11.9502C3.16797 17.0502 7.31797 21.2002 12.418 21.2002C17.518 21.2002 21.668 17.0502 21.668 11.9502C21.668 6.8502 17.518 2.7002 12.418 2.7002Z" fill="#6F7181"/>
<path id="Vector_2" d="M12.419 17.3393C12.2415 17.3393 12.0725 17.3139 11.9288 17.2632C10.112 16.6464 7.23047 14.4324 7.23047 11.1368C7.23047 9.37911 8.65012 7.95101 10.3993 7.95101C11.1599 7.95101 11.8612 8.21297 12.4274 8.68619C12.9936 8.21297 13.7034 7.95101 14.447 7.95101C16.1962 7.95101 17.6159 9.37911 17.6159 11.1368C17.6159 14.4239 14.7343 16.6379 12.9091 17.2632C12.7654 17.3139 12.588 17.3393 12.419 17.3393ZM10.3909 9.22701C9.34304 9.22701 8.48956 10.0889 8.48956 11.1452C8.48956 14.0944 11.3373 15.7337 12.3344 16.0717C12.3682 16.0802 12.4528 16.0802 12.4866 16.0717C13.4837 15.7337 16.3314 14.0944 16.3314 11.1452C16.3314 10.0889 15.478 9.22701 14.4301 9.22701C13.8386 9.22701 13.2724 9.51432 12.9175 9.99598C12.6809 10.3171 12.1401 10.3171 11.9035 9.99598C11.7315 9.75595 11.5042 9.5608 11.241 9.42697C10.9777 9.29314 10.6862 9.22456 10.3909 9.22701Z" fill="#6F7181"/>
</g>
</g>
</svg>
