<svg width="51" height="50" viewBox="0 0 51 50" fill="none" xmlns="http://www.w3.org/2000/svg">
<circle cx="25.5" cy="25" r="25" fill="#FF0101"/>
<g clip-path="url(#clip0_394_483)">
<path fill-rule="evenodd" clip-rule="evenodd" d="M22.9549 13.2737C24.5394 12.9297 26.1821 12.9107 27.7748 13.218C29.3675 13.5254 30.8741 14.152 32.1952 15.0568C33.5163 15.9615 34.622 17.1237 35.4394 18.4669C36.2568 19.81 36.7674 21.3036 36.9375 22.8492C36.9674 23.1213 36.8831 23.3935 36.7032 23.6061C36.5232 23.8187 36.2624 23.9543 35.9779 23.9829C35.6935 24.0115 35.4089 23.9309 35.1866 23.7588C34.9643 23.5867 34.8226 23.3371 34.7927 23.0651C34.6079 21.3857 33.9295 19.7907 32.836 18.465C31.7426 17.1392 30.2788 16.1369 28.6143 15.5741C26.9498 15.0113 25.1527 14.9111 23.4311 15.285C21.7095 15.659 20.1339 16.4918 18.8868 17.687C17.6397 18.8823 16.7721 20.391 16.3845 22.0385C15.9969 23.686 16.1052 25.4048 16.6969 26.9958C17.2885 28.5868 18.3393 29.9849 19.7274 31.0283C21.1156 32.0716 22.7844 32.7174 24.5405 32.8908C24.6823 32.9035 24.8202 32.9429 24.946 33.0068C25.0718 33.0707 25.1832 33.1579 25.2736 33.2632C25.364 33.3685 25.4317 33.4899 25.4728 33.6204C25.5138 33.751 25.5274 33.8879 25.5128 34.0235C25.4982 34.1591 25.4556 34.2905 25.3875 34.4102C25.3195 34.53 25.2273 34.6356 25.1163 34.7211C25.0053 34.8065 24.8777 34.87 24.7408 34.908C24.604 34.946 24.4607 34.9577 24.3191 34.9423C21.6064 34.6754 19.0812 33.495 17.1941 31.6119C15.3071 29.7289 14.181 27.2657 14.0169 24.662C13.8529 22.0583 14.6614 19.4835 16.2983 17.3972C17.9352 15.311 20.294 13.8491 22.9535 13.2723L22.9549 13.2737ZM25.5007 17.1251C25.7867 17.1251 26.0609 17.2337 26.2631 17.4271C26.4653 17.6205 26.5788 17.8828 26.5788 18.1563V25.3751H20.8288C20.5429 25.3751 20.2687 25.2664 20.0665 25.073C19.8643 24.8796 19.7507 24.6173 19.7507 24.3438C19.7507 24.0703 19.8643 23.808 20.0665 23.6146C20.2687 23.4212 20.5429 23.3126 20.8288 23.3126H24.4226V18.1563C24.4226 17.8828 24.5362 17.6205 24.7384 17.4271C24.9406 17.2337 25.2148 17.1251 25.5007 17.1251ZM28.692 27.0526C28.8941 26.8595 29.1681 26.751 29.4538 26.751C29.7395 26.751 30.0136 26.8595 30.2157 27.0526L32.6882 29.4176L35.1607 27.0526C35.2594 26.9513 35.3784 26.87 35.5107 26.8136C35.6429 26.7573 35.7857 26.727 35.9305 26.7245C36.0752 26.7221 36.219 26.7475 36.3533 26.7994C36.4875 26.8513 36.6095 26.9285 36.7118 27.0264C36.8142 27.1243 36.8949 27.241 36.9491 27.3694C37.0034 27.4978 37.03 27.6353 37.0274 27.7738C37.0249 27.9123 36.9932 28.0488 36.9343 28.1753C36.8754 28.3018 36.7904 28.4157 36.6845 28.5101L34.212 30.8751L36.6845 33.2401C36.7904 33.3345 36.8754 33.4483 36.9343 33.5748C36.9932 33.7013 37.0249 33.8379 37.0274 33.9764C37.03 34.1148 37.0034 34.2524 36.9491 34.3808C36.8949 34.5092 36.8142 34.6258 36.7118 34.7238C36.6095 34.8217 36.4875 34.8989 36.3533 34.9507C36.219 35.0026 36.0752 35.0281 35.9305 35.0256C35.7857 35.0232 35.6429 34.9929 35.5107 34.9365C35.3784 34.8802 35.2594 34.7989 35.1607 34.6976L32.6882 32.3326L30.2157 34.6976C30.117 34.7989 29.998 34.8802 29.8657 34.9365C29.7335 34.9929 29.5907 35.0232 29.446 35.0256C29.3012 35.0281 29.1574 35.0026 29.0232 34.9507C28.8889 34.8989 28.767 34.8217 28.6646 34.7238C28.5622 34.6258 28.4815 34.5092 28.4273 34.3808C28.3731 34.2524 28.3464 34.1148 28.349 33.9764C28.3515 33.8379 28.3832 33.7013 28.4422 33.5748C28.5011 33.4483 28.586 33.3345 28.692 33.2401L31.1645 30.8751L28.692 28.5101C28.4901 28.3167 28.3767 28.0546 28.3767 27.7813C28.3767 27.508 28.4901 27.2459 28.692 27.0526Z" fill="white"/>
</g>
<defs>
<clipPath id="clip0_394_483">
<rect width="23" height="22" fill="white" transform="translate(14 13)"/>
</clipPath>
</defs>
</svg>
