<svg width="24" height="24" viewBox="0 0 24 24" fill="none" xmlns="http://www.w3.org/2000/svg">
<g id="ic:round-navigate-next">
<path id="Vector" d="M9.30807 6.71002C9.21537 6.80254 9.14182 6.91242 9.09164 7.0334C9.04146 7.15437 9.01562 7.28405 9.01562 7.41502C9.01562 7.54599 9.04146 7.67567 9.09164 7.79665C9.14182 7.91762 9.21537 8.02751 9.30807 8.12002L13.1881 12L9.30807 15.88C9.12109 16.067 9.01605 16.3206 9.01605 16.585C9.01605 16.8494 9.12109 17.103 9.30807 17.29C9.49505 17.477 9.74864 17.582 10.0131 17.582C10.2775 17.582 10.5311 17.477 10.7181 17.29L15.3081 12.7C15.4008 12.6075 15.4743 12.4976 15.5245 12.3766C15.5747 12.2557 15.6005 12.126 15.6005 11.995C15.6005 11.8641 15.5747 11.7344 15.5245 11.6134C15.4743 11.4924 15.4008 11.3825 15.3081 11.29L10.7181 6.70002C10.3381 6.32002 9.69807 6.32002 9.30807 6.71002Z" fill="#00AEEF"/>
</g>
</svg>
